<?xml version="1.0" encoding="utf-8"?>
<!-- Generator: Adobe Illustrator 15.1.0, SVG Export Plug-In . SVG Version: 6.00 Build 0)  -->
<!DOCTYPE svg PUBLIC "-//W3C//DTD SVG 1.1//EN" "http://www.w3.org/Graphics/SVG/1.1/DTD/svg11.dtd">
<svg version="1.1" xmlns="http://www.w3.org/2000/svg" xmlns:xlink="http://www.w3.org/1999/xlink" x="0px" y="0px"
	 width="250.488px" height="256.487px" viewBox="0 0 250.488 256.487" enable-background="new 0 0 250.488 256.487"
	 xml:space="preserve">
<g id="Layer_3">
	<path fill="none" stroke="#000000" stroke-width="2" stroke-miterlimit="10" d="M58.208,111.61
		c2.585,10.274,0.997,19.762,2.14,30.157c1.879,17.084,6.932,29.835,15.78,44.553c7.101,11.81,17.128,18.892,28.263,26.546
		c10.316,7.091,28.401,3.505,39.331-0.582c22.219-8.308,36.705-37.507,43.027-58.296c5.439-17.888,6.588-38.709,7.648-57.479
		c0.762-13.48,4.158-36.137-3.969-47.951c-7.793-11.327-19.732-24.373-32.863-29.075c-21.338-7.641-54.329-5.907-74.648,4.442
		C61.178,35,52.79,63.093,54.284,86.096C54.837,94.623,56.852,103.192,58.208,111.61L58.208,111.61z"/>
</g>
<g id="Layer_4">
	<g>
		<g>
			<g>
				<path d="M92.174,109.479c-4.029,0.677-5.156-2.214-4.492-5.958c0.723-2.513,3.033-5.174,6.271-4.723
					c1.732,1.317,5.069,4.312,3.268,6.096C97.266,107.905,94.801,110.843,92.174,109.479z M92.961,103.136
					c-1.129,0.19-1.598,0.769-1.596,1.427c0.018,1.003,0.514,1.647,1.42,1.773c0.486,0.369,1.572-0.181,1.254-1.389
					C94.236,104.084,93.697,103.518,92.961,103.136z"/>
			</g>
		</g>
	</g>
	<g>
		<g>
			<g>
				<path d="M152.427,109.725c-3.127-0.648-4.223-2.089-4.127-5.085c0.137-2.881,2.018-6.213,6.432-4.98
					c1.902-0.331,3.576,2.766,5.141,6.061C157.847,107.027,156.261,110.587,152.427,109.725z M153.554,102.803
					c-0.875-0.182-1.334,0.804-1.492,1.672c-0.148,0.9,0.229,1.356,1.467,1.701c0.531-0.092,1.152-0.614,1.775-1.398
					C154.923,103.436,154.628,103.044,153.554,102.803z"/>
			</g>
		</g>
	</g>
	<g>
		<g>
			<path d="M107.908,80.365c-6.974-0.925-13.805-0.29-20.486,1.924c-6.797,2.251-12.949,5.987-19.559,8.69
				c-0.883,0.361-5.146,2.336-3.295,3.893c1.816,1.528,5.676,0.453,7.557-0.316c9.498-3.884,17.764-10.184,28.452-8.767
				c2.693,0.357,6.025-0.589,8.197-2.196C110.658,82.199,110.174,80.665,107.908,80.365L107.908,80.365z"/>
		</g>
	</g>
	<g>
		<g>
			<path d="M138.97,85.868c5.582,0.5,10.389,3.396,15.789,4.523c4.813,1.004,9.939,0.204,13.758,3.889
				c2.127,2.054,12.588-2.301,10.936-3.896c-3.729-3.597-9.057-3.619-13.912-4.196c-6.547-0.779-12.311-4.31-19.016-4.911
				c-2.639-0.236-5.967,0.84-8.197,2.196C136.341,84.681,136.884,85.681,138.97,85.868L138.97,85.868z"/>
		</g>
	</g>
	<path fill="none" stroke="#000000" stroke-miterlimit="10" d="M193.318,103.402c0,0,14.846-3.668-2.445,27.647"/>
	<path fill="none" stroke="#000000" stroke-miterlimit="10" d="M59.769,124.334c0,0-5.587-5.421-5.37-19.959"/>
</g>
<g id="glass">
	<path d="M194.669,90.975c0,0-10.033-4.862-31.564-3.43c-21.531,1.432-35.098,8.257-42.111,7.998
		c-7.013-0.259-12.101-4.333-34.001-6.461c-21.899-2.128-33.147,4.194-33.147,4.194s-0.443,11.017,0.554,11.099
		c0.997,0.082,0.775,2.122,2.575,4.078c1.799,1.956,2.994,16.419,9.331,22.892c6.338,6.473,12.688,5.905,12.688,5.905
		c17.069,2.609,20.758-1.265,26.465-5.172c5.705-3.906,10.783-15.928,12.507-22.531c1.723-6.602,5.164-4.468,5.164-4.468
		s3.068-4.193,5.031,7.839c1.961,12.033,13.275,21.309,19.273,23.973c5.996,2.663,15.354,2.171,26.004-0.946
		c10.648-3.118,13.9-16.847,15.813-25.189c1.914-8.342,2.34-3.015,4.068-7.354C195.046,99.063,194.669,90.975,194.669,90.975z
		 M111.438,116.382c-4.83,12.049-13.847,16.35-13.847,16.35s-4.713,4.015-19.543,1.648c0,0-6.188-0.924-10.396-6.159
		c0,0-10.979-19.299-2.011-32.407c0,0,16.015-10.833,45.484,4.942C111.123,100.757,116.268,104.334,111.438,116.382z
		 M183.771,117.201c0,0-3.273,16.242-16.023,17.874c0,0-12.254,1.687-18.889-2.052s-16.221-5.786-16.113-29.916
		c0,0,3.236-8.953,19.246-10.482c16.008-1.53,24.787-1.33,29.516,1.447C181.507,94.071,188.986,103.937,183.771,117.201z"/>
</g>
<g id="Layer_5">
	<g>
		<path d="M96.155,169.998c4.381,1.268,8.787,2.407,13.191,3.521c2.197,0.573,4.404,1.148,6.658,1.473
			c2.251,0.316,4.539,0.397,6.783,0.095c4.494-0.613,8.932-1.645,13.365-2.665l13.344-3.012l0.029,0.096
			c-4.297,1.578-8.689,2.858-13.131,3.955c-2.225,0.533-4.471,0.98-6.727,1.371c-2.258,0.393-4.537,0.694-6.834,0.8
			c-2.303,0.136-4.602-0.059-6.871-0.318c-2.275-0.252-4.553-0.544-6.803-0.982c-2.248-0.454-4.457-1.073-6.636-1.771
			c-2.172-0.723-4.336-1.473-6.41-2.469L96.155,169.998z"/>
	</g>
	<g>
		<path d="M102.448,177.062c2.566,2.193,5.56,3.708,8.669,4.854c1.551,0.593,3.16,1.101,4.824,1.351
			c1.662,0.241,3.357,0.247,5.025,0.086c3.34-0.338,6.602-1.076,9.785-2.09c3.199-0.967,6.316-2.214,9.447-3.513l0.047,0.088
			c-2.84,1.863-5.93,3.356-9.17,4.44c-3.252,1.034-6.668,1.661-10.086,1.621c-1.705-0.01-3.4-0.126-5.089-0.311
			c-1.688-0.18-3.391-0.407-5.047-0.883c-1.648-0.487-3.221-1.232-4.67-2.158c-1.431-0.944-2.787-2.041-3.812-3.419L102.448,177.062
			z"/>
	</g>
	<g>
		<polyline fill="none" stroke="#000000" stroke-miterlimit="10" points="112.289,204.204 110.154,204.285 108.27,204.464 
			110.09,206.038 105.52,205.201 105.904,206.232 105.41,206.937 108.84,209.121 105.609,208.792 106.303,209.946 105.545,210.55 
			106.949,211.971 108.41,213.411 103.563,212.475 106.168,214.353 105.996,215.186 105.223,215.792 		"/>
	</g>
	<g display="none">
		<polyline display="inline" fill="none" stroke="#000000" stroke-miterlimit="10" points="112.053,198.069 116.043,198.877 
			110.525,199.682 112.717,200.489 109.969,201.298 114.101,202.106 116.553,202.912 115.705,203.719 116.233,204.53 
			113.433,205.339 115.009,206.148 118.361,206.959 116.061,207.77 114.075,208.581 116.713,209.389 111.373,210.202 
			112.218,211.015 111.968,211.832 116.62,212.648 		"/>
	</g>
	<g>
		<polyline fill="none" stroke="#000000" stroke-miterlimit="10" points="116.691,201.658 114.482,202.461 109.77,203.25 
			116.367,204.099 108.525,204.87 108.686,205.686 117.727,206.551 112.766,207.334 114.68,208.16 113.402,208.967 109.334,209.757 
			114.006,210.597 109.088,211.383 109.822,212.204 109.352,213.016 114.482,213.861 107.377,214.638 110.193,215.472 
			106.65,216.269 111.965,217.113 115.115,217.949 114.02,218.763 114.695,219.59 111.086,220.392 		"/>
	</g>
	<g>
		<polyline fill="none" stroke="#000000" stroke-miterlimit="10" points="115.594,200.765 124.656,202.247 123.38,202.952 
			124.156,203.809 114.871,203.917 115.664,204.775 119.783,205.886 122.017,206.857 120.025,207.509 120.396,208.333 
			116.889,208.872 113.834,209.445 119.925,210.702 112.156,210.917 123.859,212.598 122.593,213.305 120.197,213.928 
			115.143,214.351 122.083,215.678 113.713,215.853 113.826,216.664 123.359,218.183 118.044,218.588 120.019,219.544 
			118.609,220.249 114.236,220.729 		"/>
	</g>
	<g>
		<polyline fill="none" stroke="#000000" stroke-miterlimit="10" points="124.005,201.572 129.269,202.943 122.943,203.054 
			128.494,204.457 126.625,205.049 126.25,205.806 124.076,206.37 121.056,206.839 125.41,208.109 121.253,208.456 123.886,209.542 
			119.898,209.909 121.357,210.867 128.48,212.442 127.435,213.13 128.007,213.994 120.632,213.992 121.22,214.858 124.435,216.012 
			126.164,217.006 124.548,217.638 		"/>
	</g>
	<g>
		<polyline fill="none" stroke="#000000" stroke-miterlimit="10" points="129.044,202.323 133.464,202.526 134.242,203.243 
			129.523,204.743 130.787,205.392 133.541,205.833 136.091,206.299 128.945,208.139 132.81,208.42 136.214,208.768 
			132.775,210.083 132.929,210.888 134.683,211.466 136.003,212.112 130.433,213.733 136.857,213.652 129.615,215.514 
			136.376,215.384 134.388,216.499 134.164,217.36 131.818,218.527 128.474,219.837 133.826,219.915 129.142,221.416 		"/>
	</g>
	<g display="none">
		<polyline display="inline" fill="none" stroke="#000000" stroke-miterlimit="10" points="149.253,195.734 140.479,198.59 
			147.841,197.731 148.973,198.307 143.546,200.391 142.293,201.514 149.815,200.617 146.615,202.19 150.587,202.109 
			147.886,203.567 150.134,203.889 146.145,205.644 143.575,207.074 146.605,207.215 150.387,207.181 151.125,207.851 
			147.264,209.577 148.408,210.154 150.799,210.445 153.02,210.777 147.132,212.979 		"/>
	</g>
	<g>
		<polyline fill="none" stroke="#000000" stroke-miterlimit="10" points="128.419,203.393 127.179,204.071 124.775,204.622 
			126.972,205.674 124.285,206.197 123.378,206.907 123.294,207.708 123.085,208.502 127.755,209.819 128.746,210.739 
			128.906,211.566 125.892,212.054 125.98,212.878 131.302,214.269 121.511,214.021 129.201,215.673 130.142,216.59 
			123.976,216.734 122.333,217.374 130.197,219.046 126.443,219.458 130.46,220.713 		"/>
	</g>
	<path fill="none" stroke="#000000" stroke-miterlimit="10" d="M60.748,90.75c0,0,0.285-45.112,26.516-55.083
		c26.232-9.97,25.246,2.186,33.47,3.637c8.225,1.451,32.109-5.43,32.109-5.43s28.965,1.381,32.717,27.524
		c3.752,26.144,4.621,31.532,4.621,31.532"/>
	<g>
		<path d="M84.326,196.925c1.434,1.466,2.436,3.347,3.084,5.31c0.654,1.97,0.982,4.033,1.072,6.08
			c0.098,2.051-0.045,4.091-0.328,6.095c-0.283,2.006-0.711,3.979-1.342,5.921c-0.197-2.034-0.203-4.041-0.215-6.026
			c-0.01-1.986-0.031-3.952-0.111-5.899c-0.09-1.946-0.246-3.876-0.582-5.785C85.566,200.709,85.055,198.833,84.326,196.925z"/>
	</g>
	<g>
		<path d="M170.277,188.159c-0.205,2.745-0.619,5.439-1.021,8.12c-0.393,2.683-0.838,5.346-1.182,8.013
			c-0.377,2.661-0.67,5.325-0.791,7.984c-0.045,1.328-0.057,2.659,0.074,3.978c0.121,1.32,0.375,2.631,0.955,3.88
			c-0.959-1.008-1.521-2.356-1.92-3.695c-0.373-1.355-0.58-2.748-0.67-4.138c-0.197-2.783,0.021-5.552,0.371-8.278
			c0.391-2.725,0.93-5.415,1.639-8.059C168.427,193.316,169.265,190.715,170.277,188.159z"/>
	</g>
	<g>
		<path d="M89.242,215.639c-3.369,1.022-6.713,2.165-9.879,3.658c-1.568,0.762-3.113,1.612-4.428,2.707
			c-0.649,0.546-1.248,1.163-1.628,1.863c-0.388,0.702-0.493,1.464-0.22,2.162c0.267,0.691,0.822,1.303,1.475,1.804
			c0.65,0.508,1.395,0.925,2.162,1.295c1.543,0.735,3.197,1.278,4.869,1.741c3.355,0.914,6.814,1.497,10.281,1.948
			c13.906,1.703,28.023,1.682,42.019,0.731c7.004-0.435,13.996-1.126,20.932-2.168c6.932-1.042,13.822-2.442,20.492-4.482
			c1.66-0.525,3.303-1.106,4.893-1.788c1.586-0.682,3.139-1.458,4.494-2.45c1.316-0.964,2.561-2.331,2.236-3.743
			c-0.146-0.694-0.645-1.343-1.254-1.882c-0.611-0.547-1.336-0.998-2.084-1.408c-3.041-1.61-6.473-2.539-9.881-3.325
			c-3.43-0.756-6.908-1.323-10.4-1.793c3.516,0.254,7.025,0.643,10.504,1.273c3.471,0.649,6.955,1.419,10.229,2.974
			c0.813,0.402,1.604,0.873,2.326,1.48c0.709,0.603,1.396,1.382,1.656,2.422c0.271,1.044-0.061,2.158-0.604,2.963
			c-0.539,0.829-1.24,1.472-1.963,2.043c-1.463,1.129-3.064,1.974-4.691,2.727c-1.629,0.749-3.297,1.388-4.979,1.969
			c-3.367,1.164-6.801,2.078-10.26,2.845c-3.459,0.774-6.941,1.418-10.436,1.976c-6.99,1.109-14.027,1.873-21.08,2.362
			c-7.059,0.43-14.133,0.598-21.203,0.45c-7.068-0.171-14.15-0.559-21.162-1.658c-3.502-0.55-6.994-1.229-10.414-2.256
			c-1.707-0.521-3.4-1.123-5.02-1.946c-0.807-0.415-1.599-0.882-2.322-1.478c-0.715-0.589-1.408-1.325-1.736-2.305
			c-0.347-0.973-0.121-2.107,0.391-2.91c0.502-0.831,1.191-1.467,1.907-2.021c1.446-1.104,3.056-1.895,4.681-2.602
			C82.41,217.424,85.816,216.456,89.242,215.639z"/>
	</g>
	<g>
		<path d="M116.617,111.136l-2.287,6.661c-0.758,2.222-1.57,4.424-2.355,6.636c-1.563,4.426-3.195,8.827-4.826,13.227l-0.016,0.039
			l-0.033,0.053c-0.855,1.402-1.564,2.986-1.852,4.585c-0.137,0.799-0.152,1.609,0.039,2.347c0.191,0.737,0.625,1.375,1.242,1.833
			c1.256,0.921,2.988,1.179,4.646,1.235c0.834,0.033,1.682-0.028,2.566-0.03c0.873-0.003,1.75,0.027,2.629,0.123
			c0.877,0.093,1.759,0.269,2.609,0.58c0.855,0.295,1.639,0.811,2.336,1.252c1.355,0.929,3.133,0.581,4.771,0.214
			c3.318-0.811,6.559-2.032,9.801-3.189c-1.572,0.706-3.16,1.379-4.766,2.014c-1.605,0.628-3.219,1.254-4.902,1.706
			c-0.842,0.223-1.697,0.42-2.598,0.476c-0.887,0.078-1.889-0.129-2.662-0.605c-0.77-0.453-1.453-0.872-2.242-1.119
			c-0.777-0.258-1.603-0.391-2.437-0.478c-0.834-0.083-1.682-0.104-2.531-0.091c-0.838,0.009-1.711,0.081-2.598,0.057
			c-1.744-0.054-3.615-0.256-5.197-1.371c-0.777-0.557-1.375-1.413-1.623-2.346c-0.258-0.933-0.215-1.887-0.053-2.778
			c0.35-1.793,1.095-3.403,2.044-4.924l-0.049,0.092c1.67-4.386,3.342-8.772,5.08-13.133c0.865-2.181,1.705-4.373,2.598-6.544
			L116.617,111.136z"/>
	</g>
	<g>
		<path d="M152.38,99.898c3.156,0.632,6.283,1.421,9.357,2.418c1.537,0.495,3.094,0.986,4.539,1.754
			c0.721,0.386,1.43,0.805,2.084,1.313c0.648,0.502,1.283,1.073,1.699,1.794l-0.078,0.063c-1.246-1.008-2.697-1.623-4.139-2.269
			c-1.449-0.625-2.889-1.311-4.375-1.901c-1.486-0.584-2.996-1.121-4.52-1.623c-1.518-0.517-3.049-1.006-4.592-1.451L152.38,99.898z
			"/>
	</g>
	<g>
		<path d="M93.408,99.493c-1.24,0.29-2.469,0.633-3.682,1.007c-1.217,0.36-2.422,0.758-3.602,1.208
			c-1.182,0.455-2.309,1.01-3.457,1.491c-1.152,0.486-2.27,1-3.387,1.648l-0.068-0.073c0.77-1.076,1.887-1.849,3.02-2.475
			c1.148-0.626,2.402-0.99,3.637-1.349c2.469-0.729,4.984-1.236,7.521-1.555L93.408,99.493z"/>
	</g>
	<g display="none">
		<path display="inline" d="M139.337,141.004c2.383,2.522,4.744,5.062,7.086,7.621c1.178,1.273,2.398,2.508,3.484,3.859
			c1.086,1.354,2.141,2.732,3.072,4.221l-0.076,0.065c-1.344-1.129-2.561-2.366-3.75-3.63c-1.186-1.266-2.238-2.647-3.336-3.991
			c-2.205-2.675-4.391-5.369-6.557-8.08L139.337,141.004z"/>
	</g>
	<g display="none">
		<path display="inline" d="M105.209,138.364c-1.726,2.568-3.478,5.12-5.25,7.655c-0.879,1.273-1.711,2.581-2.688,3.783
			c-0.977,1.2-1.985,2.376-3.127,3.454l-0.08-0.059c0.703-1.404,1.539-2.709,2.405-3.992c0.871-1.28,1.883-2.455,2.848-3.664
			c1.916-2.429,3.854-4.841,5.812-7.237L105.209,138.364z"/>
	</g>
	<path fill="none" stroke="#000000" stroke-miterlimit="10" d="M-23.596,238.098"/>
	<g>
		<path d="M18.732,230.945l16.859-4.77l16.884-4.673c5.626-1.565,11.224-3.241,16.91-4.575c2.844-0.661,5.689-1.321,8.555-1.897
			l4.301-0.863c1.443-0.248,2.877-0.533,4.33-0.75l0.049,0.193c-1.375,0.514-2.768,0.959-4.15,1.44l-4.18,1.329
			c-2.787,0.884-5.596,1.684-8.404,2.484c-5.621,1.587-11.329,2.832-17.009,4.188l-17.034,4.091l-17.06,3.995L18.732,230.945z"/>
	</g>
	<g>
		<path d="M236.878,227.682c-5.793-1.886-11.574-3.769-17.391-5.554c-5.803-1.822-11.625-3.576-17.475-5.215
			c-5.854-1.627-11.758-3.041-17.621-4.534c-2.934-0.749-5.877-1.433-8.834-2.046c-1.479-0.306-2.965-0.566-4.459-0.754
			c-1.492-0.217-2.996-0.335-4.508-0.266l-0.031-0.197c3.029-0.691,6.164-0.445,9.207-0.162c3.061,0.309,6.078,0.86,9.074,1.476
			c5.992,1.255,11.818,3.11,17.629,4.95c5.813,1.837,11.586,3.784,17.332,5.799c5.738,2.04,11.443,4.179,17.137,6.313
			L236.878,227.682z"/>
	</g>
</g>
<g id="Layer_6">
	<path fill="#808080" stroke="#000000" stroke-miterlimit="10" d="M195.097,94.574c0.762-13.481,3.943-34.15-4.184-45.964
		c-7.793-11.327-19.734-24.372-32.865-29.075c-21.336-7.641-54.329-5.907-74.646,4.442c-21.741,11.075-30.13,39.168-28.636,62.171
		c0.165,2.537,0.467,5.076,0.835,7.615l5.629-2.96c0,0,0.286-45.114,26.518-55.083c26.23-9.97,25.244,2.186,33.47,3.637
		c8.225,1.451,32.107-5.43,32.107-5.43s28.965,1.38,32.719,27.524c3.75,26.144,2.658,28.121,2.658,28.121"/>
</g>
</svg>
